<mxfile host="app.diagrams.net" modified="2024-02-14T08:26:17.804Z" agent="Mozilla/5.0 (Windows NT 10.0; Win64; x64; rv:122.0) Gecko/20100101 Firefox/122.0" etag="Uxaoa6LejuSACNpuaHCr" version="22.1.21" type="device">
  <diagram name="Seite-1" id="Spmzwm7a0vFysi-OmtVk">
    <mxGraphModel dx="683" dy="1541" grid="1" gridSize="10" guides="1" tooltips="1" connect="1" arrows="1" fold="1" page="1" pageScale="1" pageWidth="827" pageHeight="1169" math="0" shadow="0">
      <root>
        <mxCell id="0" />
        <mxCell id="1" parent="0" />
        <mxCell id="yjKatD3ov8BAKOIJHhgO-1" value="&lt;b&gt;Tierarzt&lt;/b&gt;" style="html=1;" vertex="1" parent="1">
          <mxGeometry x="120" y="-951" width="80" height="30" as="geometry" />
        </mxCell>
        <mxCell id="yjKatD3ov8BAKOIJHhgO-2" value="&lt;b&gt;Krankheit&lt;/b&gt;" style="html=1;" vertex="1" parent="1">
          <mxGeometry x="360" y="-951" width="80" height="30" as="geometry" />
        </mxCell>
        <mxCell id="yjKatD3ov8BAKOIJHhgO-3" value="" style="endArrow=none;html=1;rounded=0;endSize=10;exitX=0.5;exitY=0;exitDx=0;exitDy=0;" edge="1" parent="1" source="yjKatD3ov8BAKOIJHhgO-7" target="yjKatD3ov8BAKOIJHhgO-9">
          <mxGeometry width="50" height="50" relative="1" as="geometry">
            <mxPoint x="335" y="-992" as="sourcePoint" />
            <mxPoint x="290" y="-1038" as="targetPoint" />
          </mxGeometry>
        </mxCell>
        <mxCell id="yjKatD3ov8BAKOIJHhgO-4" value="" style="endArrow=none;html=1;rounded=0;endSize=10;exitX=1;exitY=0.5;exitDx=0;exitDy=0;entryX=0;entryY=0.5;entryDx=0;entryDy=0;" edge="1" parent="1" source="yjKatD3ov8BAKOIJHhgO-1" target="yjKatD3ov8BAKOIJHhgO-7">
          <mxGeometry width="50" height="50" relative="1" as="geometry">
            <mxPoint x="280" y="-1082" as="sourcePoint" />
            <mxPoint x="330" y="-1132" as="targetPoint" />
          </mxGeometry>
        </mxCell>
        <mxCell id="yjKatD3ov8BAKOIJHhgO-5" value="" style="endArrow=none;html=1;rounded=0;endSize=10;exitX=1;exitY=0.5;exitDx=0;exitDy=0;entryX=0;entryY=0.5;entryDx=0;entryDy=0;" edge="1" parent="1" source="yjKatD3ov8BAKOIJHhgO-7" target="yjKatD3ov8BAKOIJHhgO-2">
          <mxGeometry width="50" height="50" relative="1" as="geometry">
            <mxPoint x="280" y="-1082" as="sourcePoint" />
            <mxPoint x="330" y="-1132" as="targetPoint" />
          </mxGeometry>
        </mxCell>
        <mxCell id="yjKatD3ov8BAKOIJHhgO-6" value="" style="group" vertex="1" connectable="0" parent="1">
          <mxGeometry x="260" y="-951" width="40" height="49" as="geometry" />
        </mxCell>
        <mxCell id="yjKatD3ov8BAKOIJHhgO-7" value="" style="rhombus;" vertex="1" parent="yjKatD3ov8BAKOIJHhgO-6">
          <mxGeometry width="40" height="30" as="geometry" />
        </mxCell>
        <mxCell id="yjKatD3ov8BAKOIJHhgO-8" value="heilt" style="text;html=1;strokeColor=none;fillColor=none;align=center;verticalAlign=middle;whiteSpace=wrap;rounded=0;" vertex="1" parent="yjKatD3ov8BAKOIJHhgO-6">
          <mxGeometry y="30" width="40" height="19" as="geometry" />
        </mxCell>
        <mxCell id="yjKatD3ov8BAKOIJHhgO-9" value="&lt;div&gt;&lt;b&gt;Tier&lt;/b&gt;&lt;/div&gt;" style="html=1;" vertex="1" parent="1">
          <mxGeometry x="240" y="-1040" width="80" height="30" as="geometry" />
        </mxCell>
      </root>
    </mxGraphModel>
  </diagram>
</mxfile>
